<svg xmlns="http://www.w3.org/2000/svg" width="27" height="27" viewBox="0 0 27 27">
	<g transform="translate(-49 -0.469)">
		<g transform="translate(49 0.469)" fill="none" stroke="#f9f9f9" stroke-width="1">
			<circle cx="13.5" cy="13.5" r="13.5" stroke="none"/>
			<circle cx="13.5" cy="13.5" r="13" fill="none"/>
		</g>
		<g transform="translate(57.05 5.295)" fill="none">
			<path d="M5.2,16.23c-2.682,0-5.2.133-5.2-3.138s2.473-5.1,5.521-5.044,5.206,1.772,5.206,5.044c0,3.025-2.431,3.139-4.918,3.139ZM1.549,3.966A3.927,3.927,0,1,1,5.476,7.933,3.947,3.947,0,0,1,1.549,3.966Z" stroke="none"/>
			<path d="M 5.809645652770996 15.23103427886963 C 6.967535495758057 15.23103427886963 8.067235946655273 15.20430469512939 8.796335220336914 14.88156414031982 C 9.279895782470703 14.66750431060791 9.727375984191895 14.30253410339355 9.727375984191895 13.09187412261963 C 9.727375984191895 11.80010414123535 9.345046043395996 10.79441452026367 8.590995788574219 10.10274410247803 C 7.866635799407959 9.438314437866211 6.798345565795898 9.073594093322754 5.501865386962891 9.048014640808105 C 5.460555553436279 9.047214508056641 5.419385433197021 9.04681396484375 5.378325462341309 9.04681396484375 C 4.126865386962891 9.04681396484375 3.009875535964966 9.424814224243164 2.233115673065186 10.11118412017822 C 1.426405549049377 10.82402420043945 0.9999955892562866 11.85473442077637 0.9999955892562866 13.09187412261963 C 0.9999955892562866 14.33403396606445 1.413275599479675 14.70041465759277 1.817535638809204 14.89498424530029 C 2.462395668029785 15.20534420013428 3.502675533294678 15.23103427886963 4.602145671844482 15.23103427886963 C 4.700515747070312 15.23103427886963 4.799445629119873 15.23084449768066 4.898725509643555 15.23066425323486 C 4.999955654144287 15.2304744720459 5.101555824279785 15.23028469085693 5.203295707702637 15.23028469085693 C 5.304685592651367 15.23028469085693 5.406275749206543 15.2304744720459 5.507925510406494 15.23066425323486 C 5.608475685119629 15.23084449768066 5.709095478057861 15.23103427886963 5.809645652770996 15.23103427886963 M 5.476285457611084 6.933444499969482 C 7.090015411376953 6.933444499969482 8.402875900268555 5.60237455368042 8.402875900268555 3.966274499893188 C 8.402875900268555 2.330664396286011 7.090015411376953 1.000004410743713 5.476285457611084 1.000004410743713 C 3.862045526504517 1.000004410743713 2.548765659332275 2.330664396286011 2.548765659332275 3.966274499893188 C 2.548765659332275 5.60237455368042 3.862045526504517 6.933444499969482 5.476285457611084 6.933444499969482 M 4.602141857147217 16.23103523254395 C 2.156264305114746 16.23104667663574 -4.392089977045543e-06 16.11745262145996 -4.392089977045543e-06 13.09187412261963 C -4.392089977045543e-06 9.871819496154785 2.396447896957397 8.046812057495117 5.378329277038574 8.046812057495117 C 5.425848484039307 8.046812057495117 5.473506450653076 8.047275543212891 5.521315574645996 8.04820442199707 C 8.568295478820801 8.108314514160156 10.72737598419189 9.820504188537598 10.72737598419189 13.09187412261963 C 10.72737598419189 16.11726379394531 8.296586036682129 16.23103523254395 5.809645652770996 16.23103523254395 C 5.607435703277588 16.23103523254395 5.404975414276123 16.23028373718262 5.203295707702637 16.23028373718262 C 5.001780033111572 16.23028373718262 4.800840377807617 16.23103523254395 4.602141857147217 16.23103523254395 Z M 5.476285457611084 7.933444499969482 C 3.307095527648926 7.933444499969482 1.548765659332275 6.157504558563232 1.548765659332275 3.966274499893188 C 1.548765659332275 1.775944471359253 3.307095527648926 4.412536782183452e-06 5.476285457611084 4.412536782183452e-06 C 7.644545555114746 4.412536782183452e-06 9.402875900268555 1.775944471359253 9.402875900268555 3.966274499893188 C 9.402875900268555 6.157504558563232 7.644545555114746 7.933444499969482 5.476285457611084 7.933444499969482 Z" stroke="none" fill="#f9f9f9"/>
		</g>
	</g>
</svg>
