<svg xmlns="http://www.w3.org/2000/svg" width="27" height="27"><g fill="none"><g stroke="#f9f9f9"><circle cx="13.5" cy="13.5" r="13.5" stroke="none"/><circle cx="13.5" cy="13.5" r="13"/></g><path d="M13.25 21.056c-2.682 0-5.2.133-5.2-3.138s2.473-5.1 5.521-5.044 5.206 1.772 5.206 5.044c0 3.025-2.431 3.139-4.918 3.139zM9.599 8.792a3.927 3.927 0 113.927 3.967 3.947 3.947 0 01-3.927-3.967z"/><path d="M13.86 20.057c1.158 0 2.257-.027 2.986-.35.484-.213.931-.578.931-1.79 0-1.29-.382-2.297-1.136-2.988-.724-.665-1.793-1.03-3.09-1.055l-.123-.001c-1.251 0-2.368.378-3.145 1.064-.807.713-1.233 1.744-1.233 2.98 0 1.243.413 1.61.818 1.804.644.31 1.685.336 2.784.336h1.208m-.334-8.298c1.614 0 2.927-1.33 2.927-2.967 0-1.635-1.313-2.966-2.927-2.966S10.6 7.156 10.6 8.792c0 1.636 1.313 2.967 2.927 2.967m-.874 9.298c-2.446 0-4.602-.114-4.602-3.14 0-3.22 2.396-5.044 5.378-5.044l.143.001c3.047.06 5.206 1.773 5.206 5.044 0 3.025-2.43 3.139-4.917 3.139h-1.208zm.874-8.298c-2.169 0-3.927-1.775-3.927-3.967 0-2.19 1.758-3.966 3.927-3.966s3.927 1.776 3.927 3.966c0 2.192-1.758 3.967-3.927 3.967z" fill="#f9f9f9"/></g></svg>